# xmcd
#
# Track frame offsets:
#	150
#	26250
#	42195
#	61675
#	90105
#	108780
#	135567
#	151497
#	167710
#	188315
#	202155
#	216955
#	229447
#	246852
#	260460
#	276880
#
# Disc length: 3880 seconds
#
# Revision: 0
# Processed by: cddbd v1.4PL0 Copyright (c) Steve Scherf et al.
# Submitted via: EasyCDDAExtractor 4.6.9.1
#
DISCID=d00f2610
DTITLE=диажояа - тяацоудиа апо летани
DYEAR=2002
DGENRE=Folklore
TTITLE0=спеяамтфа
TTITLE1=й.паукидгс - то потгяи
TTITLE2=л.тсаияекг - поте нама
TTITLE3=аллос - ока дийа соу латиа лоу
TTITLE4=ваяалам жоу
TTITLE5=х.йояобимгс - тайилиа
TTITLE6=л.еспея - фыес апо летани
TTITLE7=й.ламтфиос - ема типота фгтоуса
TTITLE8=ж.лефимгс - паяанемг бяовг
TTITLE9=упоцеи яеулата - пыс помаеи ема вади
TTITLE10=л.лгтсиас - тяекка лоу
TTITLE11=а.ватфгс - ти ма то йамы то жики
TTITLE12=ц.мийокаоу - дем жтаиы ецы поу лецакымы
TTITLE13=а.йакижатидгс - то пио лецако ьела
TTITLE14=б.басикопоукос - ыяаиос йаияос
TTITLE15=йаи паяаликы
EXTD=
EXTT0=
EXTT1=
EXTT2=
EXTT3=
EXTT4=
EXTT5=
EXTT6=
EXTT7=
EXTT8=
EXTT9=
EXTT10=
EXTT11=
EXTT12=
EXTT13=
EXTT14=
EXTT15=
PLAYORDER=
